<svg width="115" height="45" viewBox="0 0 115 45" fill="none" xmlns="http://www.w3.org/2000/svg">
<circle cx="22.5" cy="22.5" r="22.5" fill="#FAFAFA"/>
<g clip-path="url(#clip0_17_1565)">
<path d="M23.1354 32.625H21.8645C20.8367 32.625 20.0004 31.7887 20.0004 30.7609V30.3309C19.5634 30.1913 19.1388 30.015 18.7309 29.804L18.4262 30.1087C17.6882 30.8475 16.5061 30.8259 15.7895 30.1084L14.8913 29.2102C14.1735 28.4932 14.1528 27.3114 14.8915 26.5735L15.196 26.2691C14.9849 25.8612 14.8087 25.4367 14.6691 24.9996H14.2391C13.2113 24.9996 12.375 24.1633 12.375 23.1355V21.8645C12.375 20.8367 13.2113 20.0004 14.2392 20.0004H14.6691C14.8088 19.5634 14.985 19.1388 15.196 18.7309L14.8913 18.4263C14.1531 17.6888 14.1735 16.5069 14.8916 15.7896L15.7899 14.8913C16.5081 14.1721 17.69 14.1542 18.4265 14.8916L18.7309 15.196C19.1388 14.985 19.5634 14.8087 20.0004 14.6691V14.2391C20.0004 13.2113 20.8367 12.375 21.8646 12.375H23.1355C24.1633 12.375 24.9996 13.2113 24.9996 14.2391V14.6691C25.4366 14.8087 25.8612 14.985 26.2691 15.196L26.5738 14.8913C27.3117 14.1525 28.4939 14.1741 29.2104 14.8916L30.1087 15.7898C30.8265 16.5068 30.8471 17.6886 30.1084 18.4265L29.804 18.7309C30.015 19.1388 30.1912 19.5633 30.3309 20.0004H30.7608C31.7887 20.0004 32.625 20.8367 32.625 21.8645V23.1355C32.625 24.1633 31.7887 24.9996 30.7608 24.9996H30.3309C30.1912 25.4366 30.015 25.8612 29.804 26.2691L30.1087 26.5738C30.8469 27.3112 30.8265 28.4931 30.1084 29.2104L29.2101 30.1087C28.4919 30.8279 27.31 30.8458 26.5735 30.1085L26.2691 29.804C25.8612 30.0151 25.4366 30.1913 24.9996 30.331V30.7609C24.9996 31.7887 24.1633 32.625 23.1354 32.625ZM18.9292 28.558C19.4959 28.8931 20.1058 29.1463 20.7419 29.3104C21.0039 29.378 21.1869 29.6143 21.1869 29.8849V30.7609C21.1869 31.1345 21.4909 31.4385 21.8646 31.4385H23.1355C23.5091 31.4385 23.8131 31.1345 23.8131 30.7609V29.8849C23.8131 29.6143 23.9962 29.378 24.2582 29.3104C24.8943 29.1463 25.5042 28.8931 26.0708 28.558C26.304 28.4201 26.6008 28.4576 26.7923 28.6492L27.4128 29.2697C27.6803 29.5375 28.1099 29.5313 28.3709 29.2699L29.2697 28.3711C29.5301 28.1111 29.5388 27.6814 29.27 27.413L28.6492 26.7922C28.4577 26.6007 28.4202 26.3039 28.5581 26.0708C28.8932 25.5042 29.1463 24.8943 29.3105 24.2581C29.3781 23.9961 29.6144 23.8131 29.8849 23.8131H30.7609C31.1345 23.8131 31.4385 23.5091 31.4385 23.1355V21.8646C31.4385 21.4909 31.1345 21.187 30.7609 21.187H29.8849C29.6144 21.187 29.3781 21.0039 29.3105 20.742C29.1463 20.1058 28.8931 19.4959 28.5581 18.9293C28.4202 18.6962 28.4577 18.3993 28.6492 18.2078L29.2697 17.5873C29.538 17.3194 29.531 16.8899 29.27 16.6292L28.3712 15.7304C28.1107 15.4695 27.681 15.4619 27.4131 15.7302L26.7924 16.3509C26.6009 16.5425 26.3039 16.58 26.0708 16.4421C25.5042 16.107 24.8943 15.8538 24.2582 15.6896C23.9962 15.622 23.8132 15.3858 23.8132 15.1152V14.2391C23.8132 13.8655 23.5091 13.5615 23.1355 13.5615H21.8646C21.491 13.5615 21.187 13.8655 21.187 14.2391V15.1151C21.187 15.3857 21.0039 15.622 20.7419 15.6896C20.1058 15.8537 19.4959 16.1069 18.9293 16.442C18.6961 16.5798 18.3993 16.5423 18.2078 16.3508L17.5873 15.7303C17.3198 15.4625 16.8901 15.4687 16.6292 15.7301L15.7303 16.6289C15.47 16.8889 15.4613 17.3185 15.7301 17.587L16.3508 18.2078C16.5423 18.3993 16.5798 18.6961 16.442 18.9292C16.1069 19.4958 15.8538 20.1057 15.6896 20.7419C15.622 21.0039 15.3857 21.1869 15.1152 21.1869H14.2392C13.8656 21.1869 13.5615 21.4909 13.5615 21.8645V23.1355C13.5615 23.5091 13.8656 23.8131 14.2392 23.8131H15.1151C15.3857 23.8131 15.6219 23.9961 15.6896 24.2581C15.8537 24.8942 16.1069 25.5041 16.442 26.0707C16.5798 26.3038 16.5423 26.6007 16.3508 26.7922L15.7303 27.4127C15.4621 27.6806 15.4691 28.1102 15.7301 28.3708L16.6288 29.2696C16.8894 29.5305 17.319 29.5381 17.587 29.2699L18.2077 28.6491C18.3488 28.508 18.6424 28.3883 18.9292 28.558Z" fill="#84828A"/>
<path d="M22.5 26.9059C20.0705 26.9059 18.094 24.9294 18.094 22.5C18.094 20.0705 20.0705 18.094 22.5 18.094C24.9294 18.094 26.9059 20.0705 26.9059 22.5C26.9059 24.9294 24.9294 26.9059 22.5 26.9059ZM22.5 19.2805C20.7247 19.2805 19.2805 20.7248 19.2805 22.5C19.2805 24.2751 20.7248 25.7194 22.5 25.7194C24.2751 25.7194 25.7194 24.2751 25.7194 22.5C25.7194 20.7248 24.2752 19.2805 22.5 19.2805Z" fill="#84828A"/>
</g>
<circle cx="92.5" cy="22.5" r="22.5" fill="#FAFAFA"/>
<g clip-path="url(#clip1_17_1565)">
<path d="M91.6431 32.625C89.8991 32.625 88.479 31.2058 88.479 29.4609C88.479 29.1116 88.7625 28.8281 89.1118 28.8281C89.4611 28.8281 89.7446 29.1116 89.7446 29.4609C89.7446 30.5081 90.5968 31.3594 91.6431 31.3594C92.6893 31.3594 93.5415 30.5081 93.5415 29.4609C93.5415 29.1116 93.825 28.8281 94.1743 28.8281C94.5236 28.8281 94.8071 29.1116 94.8071 29.4609C94.8071 31.2058 93.3872 32.625 91.6431 32.625Z" fill="#84828A"/>
<path d="M98.604 30.0938H84.6821C83.8679 30.0938 83.2056 29.4314 83.2056 28.6172C83.2056 28.1851 83.3937 27.776 83.7219 27.495C83.7431 27.4764 83.7658 27.4596 83.7894 27.4443C85.028 26.3635 85.7368 24.8085 85.7368 23.1665V20.8124C85.7368 17.5557 88.387 14.9062 91.643 14.9062C91.778 14.9062 91.924 14.9087 92.0591 14.9316C92.4041 14.9889 92.637 15.3155 92.5796 15.6597C92.5222 16.0039 92.1898 16.2369 91.8514 16.1794C91.7839 16.1685 91.7098 16.1719 91.643 16.1719C89.0849 16.1719 87.0024 18.2534 87.0024 20.8124V23.1665C87.0024 25.2051 86.1088 27.1339 84.5531 28.4576C84.5404 28.4678 84.5294 28.4771 84.5158 28.4864C84.4931 28.5151 84.4712 28.559 84.4712 28.6172C84.4712 28.7319 84.5674 28.8281 84.6821 28.8281H98.604C98.7187 28.8281 98.815 28.7319 98.815 28.6172C98.815 28.5581 98.7931 28.5151 98.7694 28.4864C98.7567 28.4771 98.7458 28.4678 98.7331 28.4576C97.1764 27.133 96.2837 25.2051 96.2837 23.1665V22.2469C96.2837 21.8976 96.5672 21.6141 96.9166 21.6141C97.2659 21.6141 97.5494 21.8976 97.5494 22.2469V23.1665C97.5494 24.8094 98.259 26.3652 99.4993 27.4469C99.522 27.4621 99.5439 27.4781 99.5641 27.4959C99.8924 27.776 100.081 28.1851 100.081 28.6172C100.081 29.4314 99.4183 30.0938 98.604 30.0938Z" fill="#84828A"/>
<path d="M97.5494 20.8124C95.2231 20.8124 93.3306 18.92 93.3306 16.5938C93.3306 14.2676 95.2231 12.375 97.5494 12.375C99.8756 12.375 101.768 14.2676 101.768 16.5938C101.768 18.92 99.8756 20.8124 97.5494 20.8124ZM97.5494 13.6406C95.9208 13.6406 94.5962 14.9653 94.5962 16.5938C94.5962 18.2222 95.9208 19.5468 97.5494 19.5468C99.1777 19.5468 100.502 18.2222 100.502 16.5938C100.502 14.9653 99.1777 13.6406 97.5494 13.6406Z" fill="#84828A"/>
</g>
<defs>
<clipPath id="clip0_17_1565">
<rect width="20.25" height="20.25" fill="white" transform="translate(12.375 12.375)"/>
</clipPath>
<clipPath id="clip1_17_1565">
<rect width="20.25" height="20.25" fill="white" transform="translate(82.375 12.375)"/>
</clipPath>
</defs>
</svg>
