<svg width="650" height="100" viewBox="0 0 650 100" fill="none" xmlns="http://www.w3.org/2000/svg">
<path d="M63.6867 25.2694C63.6181 27.1999 62.6742 28.5169 61.0782 29.3738C59.7739 30.4202 58.3666 29.6895 57.0538 29.5181C53.5271 29.0581 51.0901 30.4924 49.4426 33.7308C48.3786 35.8145 47.5806 38.0065 46.6023 40.1263C43.702 46.4407 39.1885 50.3376 32.444 51.3479C30.0586 51.7088 27.3813 51.6456 25.648 54.2345C30.5477 52.0786 35.2757 52.2861 39.7634 55.1185C42.3034 56.7242 42.5522 57.8067 45.7528 61.7216C51.8967 68.1893 56.2815 69.7589 63.189 65.9071C66.0893 64.2925 68.0973 65.3839 68.1402 68.7667C68.226 74.621 68.0887 80.4754 68.2088 86.3297C68.2517 88.6119 67.0676 89.9019 65.5316 90.9753C57.397 96.6673 48.8591 97.3529 39.9694 93.0952C38.6222 92.5269 39.9694 93.0952 37.9357 92.2382C29.1919 84.8233 24.6612 74.5669 20.7141 63.9226C19.8903 61.6945 20.9886 64.6713 19.6243 61.1172C19.0408 59.5837 18.7062 56.8054 16.7669 57.4639C15.1623 58.0051 15.8831 60.7293 16.1748 62.3801C17.522 70.1739 20.1477 77.5166 23.6659 84.5166C25.8883 88.9367 24.8414 90.7949 20.1477 90.8039C14.9049 90.822 9.6534 90.849 4.41053 90.7949C1.20989 90.7588 -0.0858081 89.1351 0.918146 86.1042C8.66661 62.8131 6.60722 39.4227 1.71616 15.9783C1.26138 13.7863 0.703626 11.6213 0.231682 9.42932C-0.53201 5.84815 0.549172 4.35975 4.11879 4.33269C11.5069 4.27857 18.8949 4.28759 26.2744 4.33269C30.0414 4.35975 31.2856 6.25407 29.9727 9.96153C26.9523 18.495 24.2236 27.1187 22.2243 35.9859C21.5807 38.8274 20.9629 41.6869 21.1688 44.6456C21.2289 45.4936 21.023 46.6482 22.1814 46.8196C23.2626 46.982 23.5972 45.9446 23.8203 45.0967C24.9101 40.9923 25.8883 36.8519 27.0124 32.7475C29.4751 23.736 32.1437 14.8236 39.0083 8.1935C45.6499 1.77085 54.0591 1.51827 61.5415 3.97187C63.4036 4.58527 63.661 6.23603 63.661 8.04917C63.6352 13.7863 63.6696 19.5233 63.6867 25.2604V25.2694Z" fill="#010501"/>
<path d="M374.483 50.0571C372.656 49.0558 370.802 48.1357 368.983 47.1344C361.415 42.994 356.455 34.8845 356.395 25.918C356.395 24.7904 356.464 23.6629 356.764 22.5533L357.081 21.2003C358.506 13.2441 363.474 8.17455 369.935 4.32277C370.373 4.06117 370.819 3.82663 371.274 3.5921L373.762 2.60886C382.875 0.191343 391.662 0.606288 399.754 6.55085C404.679 10.1681 407.622 15.0302 407.725 21.525C407.742 22.4812 407.382 23.9155 408.601 24.1049C410.162 24.3484 410.016 22.5804 410.145 21.6784C411.012 15.4361 412.565 11.6294 408.42 6.37946C407.957 5.79312 405.735 2.84339 406.078 1.99546C406.481 0.994174 407.459 1.10242 408.309 1.0934C410.986 1.07536 413.663 1.16556 416.332 1.05732C418.237 0.976132 419.078 1.97742 419.335 3.76349C420.82 14.1823 420.116 24.3575 416.383 34.226C415.139 37.5185 413.217 39.2324 409.562 38.8445C406.936 38.5649 404.276 38.628 401.624 38.6731C399.651 38.7002 398.244 36.6615 398.887 34.7041C401.058 27.9928 399.84 23.5546 394.888 20.2982C390.83 17.6281 382.601 18.5572 379.211 22.0572C377.118 24.2222 376.56 28.1732 377.924 31.5018C378.834 33.7208 380.31 35.4618 382.189 36.8419C386.05 39.6924 390.178 42.0017 394.614 43.7246C400.68 47.1344 396.759 44.5636 400.68 47.1344C405.434 50.3367 410.257 53.4488 413.2 58.798C418.563 68.5312 417.43 78.0479 412.342 87.4383C406.515 95.4937 398.475 98.9215 389.165 99.6973C387.578 99.986 385.99 100.031 384.403 99.8416L382.489 99.6702C375.316 99.3726 368.906 96.6664 363.611 91.66C359.467 87.7541 356.807 82.6304 356.309 76.5685C355.992 74.7915 356 73.0144 356.309 71.2464C357.897 62.0093 363.637 57.048 371.995 57.7065C375.298 57.9681 376.551 59.5016 376.268 62.9294C375.856 67.8186 377.238 70.8495 380.902 72.7077C382.472 73.5016 384.231 73.7271 385.964 73.6098C388.204 73.4474 390.495 73.6549 392.657 71.8147C396.313 68.7026 396.253 63.164 392.889 59.7181C390.795 57.5712 388.195 56.2542 385.458 55.1988" fill="#010501"/>
<path d="M113.743 30.0421C113.348 31.9274 111.932 33.0369 110.13 33.488C108.972 33.7766 107.796 33.7496 106.621 33.7676C100.219 33.8759 100.039 34.0653 100.031 40.9299C100.022 52.1064 100.031 63.2739 100.031 74.4504C100.031 75.0638 100.048 75.6772 100.082 76.2906C100.211 78.212 100.545 80.0161 102.931 80.0341C105.359 80.0522 105.642 78.2661 105.668 76.3628C105.754 69.7236 105.651 63.0935 105.72 56.4544C105.78 50.7534 107.17 49.274 112.619 49.2289C120.427 49.1657 128.244 49.1567 136.053 49.2289C141.09 49.274 142.385 50.591 142.42 55.8229C142.488 67.2971 142.506 78.7713 142.42 90.2454C142.385 95.1256 141.055 96.5508 136.473 96.5869C124.597 96.6771 112.713 96.8305 100.846 96.4877C97.2761 96.3794 93.6378 96.0366 90.0511 95.6578C87.7085 94.7016 87.5111 92.681 87.5111 90.4078C87.5455 72.8718 87.5369 55.3358 87.5283 37.7998C87.5283 32.9107 87.3996 32.7302 82.6973 32.5498C79.8056 32.4326 78.1752 31.4583 78.261 27.9313C78.4584 20.2819 78.4241 12.6144 78.4498 4.96492C78.4498 3.01647 79.7798 1.26648 81.6161 1.00488H81.6505C90.2913 1.03194 98.9236 1.06803 107.564 1.10411C112.095 1.12215 114.292 2.81802 114.326 7.51774" fill="#010501"/>
<path d="M339.411 58.9971C333.885 66.7729 326.368 69.4249 317.41 68.6401C314.037 68.3515 313.093 67.5847 313.085 63.9043C313.059 51.2936 313.076 38.6738 313.076 26.063C313.076 25.161 313.145 24.2499 313.042 23.3659C312.793 21.3272 311.669 20.0463 309.704 19.911C307.628 19.7757 306.606 21.219 306.194 23.1313C306.006 23.9883 306.092 24.9264 306.092 25.8195C306.092 42.264 306.092 58.7085 306.092 75.144C306.092 79.7896 306.975 80.7367 311.283 80.7457C318.568 80.7548 325.853 80.6465 333.138 80.7728C340.852 80.9081 345.289 88.4583 341.625 95.0704C340.063 97.8939 337.695 99.5717 334.554 99.5717C309.91 99.6078 285.275 99.6168 260.63 99.5627C256.743 99.5536 253.199 96.2431 252.65 92.5447C251.869 87.2045 254.015 82.9828 258.348 81.4313C259.875 80.881 261.463 80.7187 263.093 80.7277C270.275 80.7638 277.449 80.7638 284.631 80.7277C287.874 80.7097 289.179 79.5009 289.187 76.1182C289.239 58.8889 289.222 41.6596 289.205 24.4213C289.205 21.8324 288.123 19.8569 285.48 19.9471C282.992 20.0282 282.203 21.9857 282.211 24.4483C282.245 37.1764 282.228 49.9044 282.228 62.6234C282.228 67.8914 281.533 68.3515 276.428 68.6311C267.873 69.1002 260.828 66.394 255.894 58.7536C253.68 55.3258 252.513 51.5732 252.539 47.3425C252.616 33.6042 252.564 19.8659 252.573 6.12754C252.573 1.86983 253.285 1.08504 257.49 1.07602C270.987 1.04896 284.485 1.07602 297.983 1.067C304.084 1.067 310.193 1.00386 316.294 0.967773C323.408 1.00386 330.521 1.067 337.635 1.05798C339.797 1.05798 341.608 1.60823 342.766 3.66493C343.204 14.7963 342.877 25.9367 342.938 37.0771C342.955 41.2356 343.204 45.3941 342.757 49.5436C342.122 52.8722 340.895 55.9752 339.411 58.9791V58.9971Z" fill="#010501"/>
<path d="M184.167 8.72589C188.363 12.8934 190.68 17.8096 190.439 23.9707C190.096 33.0454 183.335 40.5956 174.591 41.3984C166.302 42.1561 157.978 35.7425 156.228 27.2542C154.426 18.5132 158.356 9.80836 166.01 5.86637C171.261 3.16922 176.839 1.77103 182.7 1.51845C189.762 1.21175 196.763 1.0133 203.628 3.42179C215.976 7.74265 222.334 16.7362 223.261 30.3482C223.733 37.3301 223.029 44.276 223.596 51.2218C224.076 57.1213 226.058 59.9447 231.404 61.821C232.52 62.2089 233.678 62.4615 234.768 62.9125C236.724 63.7153 237.908 65.1315 237.9 67.4949C237.874 74.0258 237.857 80.5567 237.9 87.0876C237.917 90.0644 235.943 91.4716 233.944 92.7706C221.725 100.745 205.173 92.8879 202.495 77.8415C201.706 73.4124 201.406 68.9292 201.234 64.4279C201.14 61.839 201.157 59.2501 201.071 56.6612C201.037 55.669 201.045 54.4061 199.741 54.37C198.248 54.3249 198.634 55.7141 198.557 56.6342C198.145 61.4421 197.836 66.2681 197.356 71.0671C196.961 75.1083 195.983 79.0322 194.584 82.8119C190.714 93.2306 182.399 97.5966 170.755 94.8453C152.761 90.5876 147.021 67.6753 154.675 54.7579C158.665 48.0285 165.203 45.584 172.222 44.1677C180.932 42.4177 189.496 43.7347 197.973 45.7824C200.264 46.3327 200.762 45.8005 200.711 43.4912C200.556 36.6355 201.054 29.7348 199.226 23.0325C197.338 16.1318 194.275 10.2684 186.844 8.58156C186.029 8.39213 185.205 8.14857 184.15 8.71687L184.167 8.72589Z" fill="#010501"/>
<path d="M501.962 64.0498C507.496 53.6401 517.098 50.5641 527.781 49.5177C529.643 49.3373 531.54 49.4726 533.419 49.5177C534.715 49.5447 536.148 49.6259 536.319 47.921C536.482 46.3064 535.187 45.8734 533.874 45.6208C529.266 44.7278 524.709 43.6182 520.342 41.8412C516.051 40.1002 512.027 37.9353 508.715 34.5796C498.607 24.3232 501.481 9.5024 514.687 3.88258C519.75 1.72667 525.044 0.680279 530.527 0.662238C542.223 0.635176 553.918 0.617135 565.623 0.662238C573.302 0.69832 577.833 5.34392 577.773 13.1828C577.739 17.9186 578.314 22.6995 577.396 27.3902C576.34 32.7665 572.865 35.6891 568.171 35.4005C563.435 35.1118 559.985 31.7381 559.719 26.4521C559.479 21.6712 558.784 17.2781 554.03 15.032C548.478 12.407 542.643 12.1454 537.057 14.6712C531.402 17.233 529.918 25.1802 533.814 31.1608C538.19 37.8902 545.097 40.5783 552.425 42.3644C556.699 43.4017 557.66 44.394 557.685 48.7329C557.737 58.2135 557.205 58.7728 547.86 58.7457C543.887 58.7367 539.932 58.6645 536.191 60.3875C530.467 63.0215 527.67 68.8307 529.532 74.3603C531.351 79.7547 537.332 82.8487 543.27 81.3874C550.16 79.6915 555.677 75.4969 561.04 71.0949C566.146 66.9003 570.891 62.2998 575.542 57.6001C576.469 56.662 577.335 55.3991 578.992 56.0215C580.699 56.662 580.39 58.1774 580.399 59.5125C580.416 65.1052 580.322 70.698 580.433 76.2907C580.502 79.7005 579.326 82.4969 576.915 84.7521C565.4 95.5497 552.168 101.341 536.139 98.9324C535.212 98.7971 534.268 98.8422 533.324 98.7971C521.775 96.6592 511.641 91.9866 504.596 82.0278C502.811 79.5021 501.473 76.6606 501.249 73.4403C500.932 71.3565 500.949 69.2727 501.232 67.189C501.49 66.1336 501.739 65.0872 501.996 64.0318L501.962 64.0498Z" fill="#010501"/>
<path d="M464.869 70.7227L472.443 65.2528L475.885 89.2781C476.941 90.7467 477.074 91.5569 476.987 92.0481C476.894 92.5671 476.472 93.2263 475.205 94.1947L475.204 94.1952L471.212 97.2483C471.211 97.2491 471.21 97.2498 471.209 97.2505C469.724 98.3735 468.985 98.5508 468.564 98.4886C468.171 98.4305 467.518 98.076 466.466 96.4798L464.256 93.0563L460.794 83.905L459.391 80.1962L457.988 83.905L454.527 93.0563L452.317 96.4798C451.265 98.076 450.612 98.4305 450.219 98.4886C449.798 98.5508 449.059 98.3735 447.574 97.2507C447.573 97.2499 447.572 97.2491 447.571 97.2483L443.579 94.1951L443.578 94.1947C442.294 93.2139 441.848 92.5502 441.748 92.0287C441.657 91.5594 441.772 90.7595 442.892 89.2852L442.892 89.2853L442.9 89.2754L445.449 85.8629L452.929 79.9961L456.067 77.5348L452.085 77.3181L442.843 76.8151L438.919 75.4831L438.897 75.4755L438.874 75.4687C437.108 74.9302 436.726 74.4162 436.607 74.1129C436.437 73.6753 436.47 72.9071 436.968 71.2092L436.968 71.2077L438.418 66.2373L438.421 66.2267L438.424 66.2161C438.977 64.2126 439.427 63.7184 439.698 63.574C439.973 63.427 440.597 63.3503 442.45 63.9325L446.34 65.2528L453.914 70.7227L457.326 73.187L456.241 69.12L453.744 59.7572V55.4977C453.744 53.3815 454.056 52.7514 454.301 52.5149C454.557 52.2676 455.162 52.0273 457.092 52.0273H461.691C463.621 52.0273 464.226 52.2676 464.482 52.5149C464.727 52.7514 465.039 53.3815 465.039 55.4977V59.7572L462.541 69.12L461.456 73.187L464.869 70.7227Z" stroke="#010501" stroke-width="3"/>
<path d="M615.446 79.5674C622.233 72.6527 626.931 65.2786 628.564 56.3996C631.899 38.2613 627.573 22.0953 615.005 8.24215C614.572 7.759 614.092 7.29168 613.55 6.92733C611.778 5.73924 610.865 4.27392 611.987 2.2304C613.07 0.250243 614.842 -0.375486 617.009 0.21064C621.606 1.43834 625.747 3.65611 629.609 6.32536C641.124 14.2777 647.509 25.2794 649.374 38.9267C651.139 51.8373 649.336 64.0905 642.007 75.1318C632.735 89.088 619.362 96.9928 602.816 99.8759C598.784 100.581 596.075 98.2284 596.075 94.1176C596.044 69.6587 596.052 45.1998 596.075 20.733C596.075 17.8182 597.259 16.4321 600.262 16.2578C603.923 16.044 607.606 16.0281 611.275 16.1549C614.169 16.2499 615.438 17.937 615.446 21.3112C615.462 39.4732 615.446 57.6352 615.446 75.7892V79.5674Z" fill="#010501"/>
</svg>
