<svg width="255" height="45" viewBox="0 0 255 45" fill="none" xmlns="http://www.w3.org/2000/svg">
<rect x="0.5" y="0.5" width="254" height="44" rx="22" stroke="#84828A"/>
<path d="M34.8163 28.9347L31.2102 25.3286C32.1041 24.2388 32.6429 22.8429 32.6429 21.3214C32.6429 17.8316 29.8112 15 26.3214 15C22.8286 15 20 17.8316 20 21.3214C20 24.8112 22.8286 27.6429 26.3214 27.6429C27.8429 27.6429 29.2357 27.1071 30.3255 26.2133L33.9316 29.8163C34.1765 30.0612 34.5714 30.0612 34.8163 29.8163C35.0612 29.5745 35.0612 29.1765 34.8163 28.9347ZM26.3214 26.3847C23.5265 26.3847 21.2551 24.1133 21.2551 21.3214C21.2551 18.5296 23.5265 16.2551 26.3214 16.2551C29.1133 16.2551 31.3878 18.5296 31.3878 21.3214C31.3878 24.1133 29.1133 26.3847 26.3214 26.3847Z" fill="#010501"/>
<path d="M51.8295 20.4545C51.7784 20.0227 51.571 19.6875 51.2074 19.4489C50.8438 19.2102 50.3977 19.0909 49.8693 19.0909C49.483 19.0909 49.1449 19.1534 48.8551 19.2784C48.5682 19.4034 48.3438 19.5753 48.1818 19.794C48.0227 20.0128 47.9432 20.2614 47.9432 20.5398C47.9432 20.7727 47.9986 20.973 48.1094 21.1406C48.223 21.3054 48.3679 21.4432 48.544 21.554C48.7202 21.6619 48.9048 21.7514 49.098 21.8224C49.2912 21.8906 49.4688 21.946 49.6307 21.9886L50.517 22.2273C50.7443 22.2869 50.9972 22.3693 51.2756 22.4744C51.5568 22.5795 51.8253 22.723 52.081 22.9048C52.3395 23.0838 52.5526 23.3139 52.7202 23.5952C52.8878 23.8764 52.9716 24.2216 52.9716 24.6307C52.9716 25.1023 52.848 25.5284 52.6009 25.9091C52.3565 26.2898 51.9986 26.5923 51.527 26.8168C51.0582 27.0412 50.4886 27.1534 49.8182 27.1534C49.1932 27.1534 48.652 27.0526 48.1946 26.8509C47.7401 26.6491 47.3821 26.3679 47.1207 26.0071C46.8622 25.6463 46.7159 25.2273 46.6818 24.75H47.7727C47.8011 25.0795 47.9119 25.3523 48.1051 25.5682C48.3011 25.7812 48.5483 25.9403 48.8466 26.0455C49.1477 26.1477 49.4716 26.1989 49.8182 26.1989C50.2216 26.1989 50.5838 26.1335 50.9048 26.0028C51.2259 25.8693 51.4801 25.6847 51.6676 25.4489C51.8551 25.2102 51.9489 24.9318 51.9489 24.6136C51.9489 24.3239 51.8679 24.0881 51.706 23.9062C51.544 23.7244 51.331 23.5767 51.0668 23.4631C50.8026 23.3494 50.517 23.25 50.2102 23.1648L49.1364 22.858C48.4545 22.6619 47.9148 22.3821 47.517 22.0185C47.1193 21.6548 46.9205 21.179 46.9205 20.5909C46.9205 20.1023 47.0526 19.6761 47.3168 19.3125C47.5838 18.946 47.9418 18.6619 48.3906 18.4602C48.8423 18.2557 49.3466 18.1534 49.9034 18.1534C50.4659 18.1534 50.9659 18.2543 51.4034 18.456C51.8409 18.6548 52.1875 18.9276 52.4432 19.2741C52.7017 19.6207 52.8381 20.0142 52.8523 20.4545H51.8295ZM57.3171 27.1364C56.6864 27.1364 56.1424 26.9972 55.685 26.7188C55.2305 26.4375 54.8796 26.0455 54.6325 25.5426C54.3881 25.0369 54.266 24.4489 54.266 23.7784C54.266 23.108 54.3881 22.517 54.6325 22.0057C54.8796 21.4915 55.2234 21.0909 55.6637 20.804C56.1069 20.5142 56.6239 20.3693 57.2148 20.3693C57.5558 20.3693 57.8924 20.4261 58.2248 20.5398C58.5572 20.6534 58.8597 20.8381 59.1325 21.0938C59.4052 21.3466 59.6225 21.6818 59.7844 22.0994C59.9464 22.517 60.0273 23.0312 60.0273 23.642V24.0682H54.9819V23.1989H59.0046C59.0046 22.8295 58.9308 22.5 58.783 22.2102C58.6381 21.9205 58.4308 21.6918 58.1609 21.5241C57.8938 21.3565 57.5785 21.2727 57.2148 21.2727C56.8143 21.2727 56.4677 21.3722 56.1751 21.571C55.8853 21.767 55.6623 22.0227 55.506 22.3381C55.3498 22.6534 55.2717 22.9915 55.2717 23.3523V23.9318C55.2717 24.4261 55.3569 24.8452 55.5273 25.1889C55.7006 25.5298 55.9407 25.7898 56.2475 25.9688C56.5543 26.1449 56.9109 26.233 57.3171 26.233C57.5813 26.233 57.82 26.196 58.033 26.1222C58.2489 26.0455 58.435 25.9318 58.5913 25.7812C58.7475 25.6278 58.8683 25.4375 58.9535 25.2102L59.9251 25.483C59.8228 25.8125 59.6509 26.1023 59.4094 26.3523C59.168 26.5994 58.8697 26.7926 58.5146 26.9318C58.1594 27.0682 57.7603 27.1364 57.3171 27.1364ZM63.4833 27.1534C63.0685 27.1534 62.6921 27.0753 62.354 26.919C62.016 26.7599 61.7475 26.5312 61.5487 26.233C61.3498 25.9318 61.2504 25.5682 61.2504 25.142C61.2504 24.767 61.3242 24.4631 61.4719 24.2301C61.6197 23.9943 61.8171 23.8097 62.0643 23.6761C62.3114 23.5426 62.5842 23.4432 62.8825 23.3778C63.1836 23.3097 63.4862 23.2557 63.7901 23.2159C64.1879 23.1648 64.5103 23.1264 64.7575 23.1009C65.0075 23.0724 65.1893 23.0256 65.3029 22.9602C65.4194 22.8949 65.4776 22.7812 65.4776 22.6193V22.5852C65.4776 22.1648 65.3626 21.8381 65.1325 21.6051C64.9052 21.3722 64.56 21.2557 64.0969 21.2557C63.6168 21.2557 63.2404 21.3608 62.9677 21.571C62.695 21.7812 62.5032 22.0057 62.3924 22.2443L61.4379 21.9034C61.6083 21.5057 61.8356 21.196 62.1197 20.9744C62.4066 20.75 62.7191 20.5937 63.0572 20.5057C63.3981 20.4148 63.7333 20.3693 64.0629 20.3693C64.2731 20.3693 64.5146 20.3949 64.7873 20.446C65.0629 20.4943 65.3285 20.5952 65.5842 20.7486C65.8427 20.902 66.0572 21.1335 66.2276 21.4432C66.3981 21.7528 66.4833 22.1676 66.4833 22.6875V27H65.4776V26.1136H65.4265C65.3583 26.2557 65.2447 26.4077 65.0856 26.5696C64.9265 26.7315 64.7148 26.8693 64.4506 26.983C64.1864 27.0966 63.864 27.1534 63.4833 27.1534ZM63.6367 26.25C64.0344 26.25 64.3697 26.1719 64.6424 26.0156C64.918 25.8594 65.1254 25.6577 65.2646 25.4105C65.4066 25.1634 65.4776 24.9034 65.4776 24.6307V23.7102C65.435 23.7614 65.3413 23.8082 65.1964 23.8509C65.0543 23.8906 64.8896 23.9261 64.7021 23.9574C64.5174 23.9858 64.337 24.0114 64.1609 24.0341C63.9876 24.054 63.8469 24.071 63.739 24.0852C63.4776 24.1193 63.2333 24.1747 63.006 24.2514C62.7816 24.3253 62.5998 24.4375 62.4606 24.5881C62.3242 24.7358 62.256 24.9375 62.256 25.1932C62.256 25.5426 62.3853 25.8068 62.6438 25.9858C62.9052 26.1619 63.2362 26.25 63.6367 26.25ZM68.3189 27V20.4545H69.2905V21.4432H69.3587C69.478 21.1193 69.6939 20.8565 70.0064 20.6548C70.3189 20.4531 70.6712 20.3523 71.0632 20.3523C71.1371 20.3523 71.2294 20.3537 71.3402 20.3565C71.451 20.3594 71.5348 20.3636 71.5916 20.3693V21.392C71.5575 21.3835 71.4794 21.3707 71.3572 21.3537C71.2379 21.3338 71.1115 21.3239 70.978 21.3239C70.6598 21.3239 70.3757 21.3906 70.1257 21.5241C69.8786 21.6548 69.6825 21.8366 69.5376 22.0696C69.3956 22.2997 69.3246 22.5625 69.3246 22.858V27H68.3189ZM75.2436 27.1364C74.63 27.1364 74.1016 26.9915 73.6584 26.7017C73.2152 26.4119 72.8743 26.0128 72.6357 25.5043C72.397 24.9957 72.2777 24.4148 72.2777 23.7614C72.2777 23.0966 72.3999 22.5099 72.6442 22.0014C72.8913 21.4901 73.2351 21.0909 73.6754 20.804C74.1186 20.5142 74.6357 20.3693 75.2266 20.3693C75.6868 20.3693 76.1016 20.4545 76.4709 20.625C76.8402 20.7955 77.1428 21.0341 77.3786 21.3409C77.6143 21.6477 77.7607 22.0057 77.8175 22.4148H76.8118C76.7351 22.1165 76.5646 21.8523 76.3004 21.6222C76.0391 21.3892 75.6868 21.2727 75.2436 21.2727C74.8516 21.2727 74.5078 21.375 74.2124 21.5795C73.9197 21.7812 73.6911 22.0668 73.5263 22.4361C73.3643 22.8026 73.2834 23.233 73.2834 23.7273C73.2834 24.233 73.3629 24.6733 73.522 25.0483C73.6839 25.4233 73.9112 25.7145 74.2038 25.9219C74.4993 26.1293 74.8459 26.233 75.2436 26.233C75.505 26.233 75.7422 26.1875 75.9553 26.0966C76.1683 26.0057 76.3487 25.875 76.4964 25.7045C76.6442 25.5341 76.7493 25.3295 76.8118 25.0909H77.8175C77.7607 25.4773 77.62 25.8253 77.3956 26.1349C77.174 26.4418 76.88 26.6861 76.5135 26.8679C76.1499 27.0469 75.7266 27.1364 75.2436 27.1364ZM80.2933 23.0625V27H79.2876V18.2727H80.2933V21.4773H80.3786C80.532 21.1392 80.7621 20.8707 81.0689 20.6719C81.3786 20.4702 81.7905 20.3693 82.3047 20.3693C82.7507 20.3693 83.1413 20.4588 83.4766 20.6378C83.8118 20.8139 84.0717 21.0852 84.2564 21.4517C84.4439 21.8153 84.5376 22.2784 84.5376 22.8409V27H83.532V22.9091C83.532 22.3892 83.397 21.9872 83.1271 21.7031C82.8601 21.4162 82.4893 21.2727 82.0149 21.2727C81.6854 21.2727 81.3899 21.3423 81.1286 21.4815C80.87 21.6207 80.6655 21.8239 80.5149 22.0909C80.3672 22.358 80.2933 22.6818 80.2933 23.0625ZM92.6673 20.4545V21.3068H89.1388V20.4545H92.6673ZM90.1957 27V19.5511C90.1957 19.1761 90.2837 18.8636 90.4599 18.6136C90.636 18.3636 90.8647 18.1761 91.146 18.0511C91.4272 17.9261 91.7241 17.8636 92.0366 17.8636C92.2837 17.8636 92.4854 17.8835 92.6417 17.9233C92.7979 17.9631 92.9144 18 92.9911 18.0341L92.7013 18.9034C92.6502 18.8864 92.5792 18.8651 92.4883 18.8395C92.4002 18.8139 92.2837 18.8011 92.1388 18.8011C91.8065 18.8011 91.5664 18.8849 91.4187 19.0526C91.2738 19.2202 91.2013 19.4659 91.2013 19.7898V27H90.1957ZM96.4663 27.1364C95.8754 27.1364 95.3569 26.9957 94.9109 26.7145C94.4677 26.4332 94.1211 26.0398 93.8711 25.5341C93.6239 25.0284 93.5004 24.4375 93.5004 23.7614C93.5004 23.0795 93.6239 22.4844 93.8711 21.9759C94.1211 21.4673 94.4677 21.0724 94.9109 20.7912C95.3569 20.5099 95.8754 20.3693 96.4663 20.3693C97.0572 20.3693 97.5742 20.5099 98.0174 20.7912C98.4634 21.0724 98.81 21.4673 99.0572 21.9759C99.3072 22.4844 99.4322 23.0795 99.4322 23.7614C99.4322 24.4375 99.3072 25.0284 99.0572 25.5341C98.81 26.0398 98.4634 26.4332 98.0174 26.7145C97.5742 26.9957 97.0572 27.1364 96.4663 27.1364ZM96.4663 26.233C96.9151 26.233 97.2844 26.1179 97.5742 25.8878C97.864 25.6577 98.0785 25.3551 98.2177 24.9801C98.3569 24.6051 98.4265 24.1989 98.4265 23.7614C98.4265 23.3239 98.3569 22.9162 98.2177 22.5384C98.0785 22.1605 97.864 21.8551 97.5742 21.6222C97.2844 21.3892 96.9151 21.2727 96.4663 21.2727C96.0174 21.2727 95.6481 21.3892 95.3583 21.6222C95.0685 21.8551 94.854 22.1605 94.7148 22.5384C94.5756 22.9162 94.506 23.3239 94.506 23.7614C94.506 24.1989 94.5756 24.6051 94.7148 24.9801C94.854 25.3551 95.0685 25.6577 95.3583 25.8878C95.6481 26.1179 96.0174 26.233 96.4663 26.233ZM100.967 27V20.4545H101.939V21.4432H102.007C102.126 21.1193 102.342 20.8565 102.655 20.6548C102.967 20.4531 103.32 20.3523 103.712 20.3523C103.786 20.3523 103.878 20.3537 103.989 20.3565C104.099 20.3594 104.183 20.3636 104.24 20.3693V21.392C104.206 21.3835 104.128 21.3707 104.006 21.3537C103.886 21.3338 103.76 21.3239 103.626 21.3239C103.308 21.3239 103.024 21.3906 102.774 21.5241C102.527 21.6548 102.331 21.8366 102.186 22.0696C102.044 22.2997 101.973 22.5625 101.973 22.858V27H100.967ZM113.444 21.9205L112.54 22.1761C112.483 22.0256 112.4 21.8793 112.289 21.7372C112.181 21.5923 112.033 21.473 111.846 21.3793C111.658 21.2855 111.418 21.2386 111.125 21.2386C110.725 21.2386 110.391 21.331 110.124 21.5156C109.86 21.6974 109.728 21.929 109.728 22.2102C109.728 22.4602 109.819 22.6577 110 22.8026C110.182 22.9474 110.466 23.0682 110.853 23.1648L111.824 23.4034C112.409 23.5455 112.846 23.7628 113.132 24.0554C113.419 24.3452 113.563 24.7187 113.563 25.1761C113.563 25.5511 113.455 25.8864 113.239 26.1818C113.026 26.4773 112.728 26.7102 112.344 26.8807C111.961 27.0511 111.515 27.1364 111.006 27.1364C110.338 27.1364 109.786 26.9915 109.348 26.7017C108.911 26.4119 108.634 25.9886 108.517 25.4318L109.472 25.1932C109.563 25.5455 109.735 25.8097 109.988 25.9858C110.243 26.1619 110.577 26.25 110.989 26.25C111.458 26.25 111.83 26.1506 112.105 25.9517C112.384 25.75 112.523 25.5085 112.523 25.2273C112.523 25 112.444 24.8097 112.284 24.6562C112.125 24.5 111.881 24.3835 111.551 24.3068L110.461 24.0511C109.861 23.9091 109.421 23.6889 109.14 23.3906C108.861 23.0895 108.722 22.7131 108.722 22.2614C108.722 21.892 108.826 21.5653 109.033 21.2812C109.243 20.9972 109.529 20.7741 109.89 20.6122C110.253 20.4503 110.665 20.3693 111.125 20.3693C111.773 20.3693 112.282 20.5114 112.651 20.7955C113.023 21.0795 113.287 21.4545 113.444 21.9205ZM117.736 27.1364C117.145 27.1364 116.626 26.9957 116.18 26.7145C115.737 26.4332 115.391 26.0398 115.141 25.5341C114.893 25.0284 114.77 24.4375 114.77 23.7614C114.77 23.0795 114.893 22.4844 115.141 21.9759C115.391 21.4673 115.737 21.0724 116.18 20.7912C116.626 20.5099 117.145 20.3693 117.736 20.3693C118.327 20.3693 118.844 20.5099 119.287 20.7912C119.733 21.0724 120.08 21.4673 120.327 21.9759C120.577 22.4844 120.702 23.0795 120.702 23.7614C120.702 24.4375 120.577 25.0284 120.327 25.5341C120.08 26.0398 119.733 26.4332 119.287 26.7145C118.844 26.9957 118.327 27.1364 117.736 27.1364ZM117.736 26.233C118.185 26.233 118.554 26.1179 118.844 25.8878C119.134 25.6577 119.348 25.3551 119.487 24.9801C119.626 24.6051 119.696 24.1989 119.696 23.7614C119.696 23.3239 119.626 22.9162 119.487 22.5384C119.348 22.1605 119.134 21.8551 118.844 21.6222C118.554 21.3892 118.185 21.2727 117.736 21.2727C117.287 21.2727 116.918 21.3892 116.628 21.6222C116.338 21.8551 116.124 22.1605 115.984 22.5384C115.845 22.9162 115.776 23.3239 115.776 23.7614C115.776 24.1989 115.845 24.6051 115.984 24.9801C116.124 25.3551 116.338 25.6577 116.628 25.8878C116.918 26.1179 117.287 26.233 117.736 26.233ZM122.237 27V20.4545H123.208V21.4773H123.294C123.43 21.1278 123.65 20.8565 123.954 20.6634C124.258 20.4673 124.623 20.3693 125.049 20.3693C125.481 20.3693 125.841 20.4673 126.127 20.6634C126.417 20.8565 126.643 21.1278 126.805 21.4773H126.873C127.041 21.1392 127.292 20.8707 127.627 20.6719C127.963 20.4702 128.365 20.3693 128.833 20.3693C129.419 20.3693 129.897 20.5526 130.27 20.919C130.642 21.2827 130.828 21.8494 130.828 22.6193V27H129.822V22.6193C129.822 22.1364 129.69 21.7912 129.426 21.5838C129.162 21.3764 128.85 21.2727 128.493 21.2727C128.032 21.2727 127.676 21.4119 127.423 21.6903C127.17 21.9659 127.044 22.3153 127.044 22.7386V27H126.021V22.517C126.021 22.1449 125.9 21.8452 125.659 21.6179C125.417 21.3878 125.106 21.2727 124.725 21.2727C124.464 21.2727 124.22 21.3423 123.993 21.4815C123.768 21.6207 123.586 21.8139 123.447 22.0611C123.311 22.3054 123.243 22.5881 123.243 22.9091V27H122.237ZM135.411 27.1364C134.78 27.1364 134.236 26.9972 133.779 26.7188C133.324 26.4375 132.973 26.0455 132.726 25.5426C132.482 25.0369 132.36 24.4489 132.36 23.7784C132.36 23.108 132.482 22.517 132.726 22.0057C132.973 21.4915 133.317 21.0909 133.757 20.804C134.201 20.5142 134.718 20.3693 135.309 20.3693C135.65 20.3693 135.986 20.4261 136.319 20.5398C136.651 20.6534 136.953 20.8381 137.226 21.0938C137.499 21.3466 137.716 21.6818 137.878 22.0994C138.04 22.517 138.121 23.0312 138.121 23.642V24.0682H133.076V23.1989H137.098C137.098 22.8295 137.025 22.5 136.877 22.2102C136.732 21.9205 136.525 21.6918 136.255 21.5241C135.988 21.3565 135.672 21.2727 135.309 21.2727C134.908 21.2727 134.561 21.3722 134.269 21.571C133.979 21.767 133.756 22.0227 133.6 22.3381C133.444 22.6534 133.365 22.9915 133.365 23.3523V23.9318C133.365 24.4261 133.451 24.8452 133.621 25.1889C133.794 25.5298 134.034 25.7898 134.341 25.9688C134.648 26.1449 135.005 26.233 135.411 26.233C135.675 26.233 135.914 26.196 136.127 26.1222C136.343 26.0455 136.529 25.9318 136.685 25.7812C136.841 25.6278 136.962 25.4375 137.047 25.2102L138.019 25.483C137.917 25.8125 137.745 26.1023 137.503 26.3523C137.262 26.5994 136.963 26.7926 136.608 26.9318C136.253 27.0682 135.854 27.1364 135.411 27.1364ZM142.498 20.4545V21.3068H139.105V20.4545H142.498ZM140.094 18.8864H141.1V25.125C141.1 25.4091 141.141 25.6222 141.223 25.7642C141.309 25.9034 141.417 25.9972 141.547 26.0455C141.681 26.0909 141.821 26.1136 141.969 26.1136C142.08 26.1136 142.171 26.108 142.242 26.0966C142.313 26.0824 142.37 26.071 142.412 26.0625L142.617 26.9659C142.549 26.9915 142.453 27.017 142.331 27.0426C142.209 27.071 142.054 27.0852 141.867 27.0852C141.583 27.0852 141.304 27.0241 141.032 26.902C140.762 26.7798 140.537 26.5938 140.358 26.3438C140.182 26.0938 140.094 25.7784 140.094 25.3977V18.8864ZM145.157 23.0625V27H144.151V18.2727H145.157V21.4773H145.242C145.395 21.1392 145.625 20.8707 145.932 20.6719C146.242 20.4702 146.654 20.3693 147.168 20.3693C147.614 20.3693 148.005 20.4588 148.34 20.6378C148.675 20.8139 148.935 21.0852 149.12 21.4517C149.307 21.8153 149.401 22.2784 149.401 22.8409V27H148.395V22.9091C148.395 22.3892 148.26 21.9872 147.99 21.7031C147.723 21.4162 147.353 21.2727 146.878 21.2727C146.549 21.2727 146.253 21.3423 145.992 21.4815C145.733 21.6207 145.529 21.8239 145.378 22.0909C145.23 22.358 145.157 22.6818 145.157 23.0625ZM151.241 27V20.4545H152.246V27H151.241ZM151.752 19.3636C151.556 19.3636 151.387 19.2969 151.245 19.1634C151.106 19.0298 151.036 18.8693 151.036 18.6818C151.036 18.4943 151.106 18.3338 151.245 18.2003C151.387 18.0668 151.556 18 151.752 18C151.948 18 152.116 18.0668 152.255 18.2003C152.397 18.3338 152.468 18.4943 152.468 18.6818C152.468 18.8693 152.397 19.0298 152.255 19.1634C152.116 19.2969 151.948 19.3636 151.752 19.3636ZM155.094 23.0625V27H154.088V20.4545H155.06V21.4773H155.145C155.299 21.1449 155.532 20.8778 155.844 20.6761C156.157 20.4716 156.56 20.3693 157.054 20.3693C157.498 20.3693 157.885 20.4602 158.218 20.642C158.55 20.821 158.809 21.0938 158.993 21.4602C159.178 21.8239 159.27 22.2841 159.27 22.8409V27H158.265V22.9091C158.265 22.3949 158.131 21.9943 157.864 21.7074C157.597 21.4176 157.23 21.2727 156.765 21.2727C156.444 21.2727 156.157 21.3423 155.904 21.4815C155.654 21.6207 155.456 21.8239 155.311 22.0909C155.167 22.358 155.094 22.6818 155.094 23.0625ZM163.75 29.5909C163.264 29.5909 162.847 29.5284 162.497 29.4034C162.148 29.2812 161.857 29.1193 161.624 28.9176C161.393 28.7188 161.21 28.5057 161.074 28.2784L161.875 27.7159C161.966 27.8352 162.081 27.9716 162.22 28.125C162.359 28.2812 162.55 28.4162 162.791 28.5298C163.036 28.6463 163.355 28.7045 163.75 28.7045C164.278 28.7045 164.714 28.5767 165.058 28.321C165.402 28.0653 165.574 27.6648 165.574 27.1193V25.7898H165.489C165.415 25.9091 165.31 26.0568 165.173 26.233C165.04 26.4062 164.847 26.5611 164.594 26.6974C164.344 26.831 164.006 26.8977 163.58 26.8977C163.051 26.8977 162.577 26.7727 162.156 26.5227C161.739 26.2727 161.408 25.9091 161.163 25.4318C160.922 24.9545 160.801 24.375 160.801 23.6932C160.801 23.0227 160.919 22.4389 161.155 21.9418C161.391 21.4418 161.719 21.0554 162.139 20.7827C162.56 20.5071 163.045 20.3693 163.597 20.3693C164.023 20.3693 164.361 20.4403 164.611 20.5824C164.864 20.7216 165.057 20.8807 165.19 21.0597C165.327 21.2358 165.432 21.3807 165.506 21.4943H165.608V20.4545H166.58V27.1875C166.58 27.75 166.452 28.2074 166.196 28.5597C165.943 28.9148 165.602 29.1747 165.173 29.3395C164.747 29.5071 164.273 29.5909 163.75 29.5909ZM163.716 25.9943C164.119 25.9943 164.46 25.902 164.739 25.7173C165.017 25.5327 165.229 25.267 165.374 24.9205C165.518 24.5739 165.591 24.1591 165.591 23.6761C165.591 23.2045 165.52 22.7884 165.378 22.4276C165.236 22.0668 165.026 21.7841 164.747 21.5795C164.469 21.375 164.125 21.2727 163.716 21.2727C163.29 21.2727 162.935 21.3807 162.651 21.5966C162.369 21.8125 162.158 22.1023 162.016 22.4659C161.876 22.8295 161.807 23.233 161.807 23.6761C161.807 24.1307 161.878 24.5327 162.02 24.8821C162.165 25.2287 162.378 25.5014 162.659 25.7003C162.943 25.8963 163.295 25.9943 163.716 25.9943Z" fill="#010501"/>
</svg>
