<svg width="45" height="45" viewBox="0 0 45 45" fill="none" xmlns="http://www.w3.org/2000/svg">
<path fill-rule="evenodd" clip-rule="evenodd" d="M22.5 3C11.7304 3 3 11.7305 3 22.5C3 33.2696 11.7304 42 22.5 42C33.2696 42 42 33.2696 42 22.5C42 11.7304 33.2695 3 22.5 3ZM22.5 1.96701e-06C10.0736 3.05336e-06 -3.05336e-06 10.0736 -1.96701e-06 22.5C-8.80661e-07 34.9264 10.0736 45 22.5 45C34.9264 45 45 34.9264 45 22.5C45 10.0736 34.9264 8.80661e-07 22.5 1.96701e-06Z" fill="#84828A"/>
<path fill-rule="evenodd" clip-rule="evenodd" d="M14.5458 19.8635L21.7053 12.704C22.1446 12.2647 22.8569 12.2647 23.2963 12.704L30.4557 19.8635C30.8951 20.3028 30.8951 21.0151 30.4557 21.4545C30.0164 21.8938 29.3041 21.8938 28.8647 21.4545L23.6258 16.2155L23.6258 29.2495L21.3758 29.2495L21.3758 16.2155L16.1368 21.4545C15.6975 21.8938 14.9852 21.8938 14.5458 21.4545C14.1065 21.0151 14.1065 20.3028 14.5458 19.8635Z" fill="#84828A"/>
</svg>
