<svg width="45" height="45" viewBox="0 0 45 45" fill="none" xmlns="http://www.w3.org/2000/svg">
<rect x="1.5" y="1.5" width="42" height="42" rx="21" stroke="#84828A" stroke-width="3"/>
<path d="M17.0001 19C17.0001 15.6863 19.6864 13 23.0001 13C26.3138 13 29.0001 15.6863 29.0001 19V23C29.0001 26.3137 26.3138 29 23.0001 29C19.6864 29 17.0001 26.3137 17.0001 23V19Z" fill="#84828A"/>
<path d="M23.7493 30.9654C23.7499 30.9769 23.7501 30.9884 23.7501 31V32C23.7501 32.4142 23.4143 32.75 23.0001 32.75C22.5859 32.75 22.2501 32.4142 22.2501 32V31C22.2501 30.9884 22.2504 30.9769 22.2509 30.9654C18.4306 30.6106 15.3896 27.5696 15.0347 23.7493C14.9964 23.3369 15.3359 23 15.7501 23C16.1643 23 16.4955 23.3372 16.5427 23.7487C16.914 26.9859 19.6634 29.5 23.0001 29.5C26.3367 29.5 29.0861 26.9859 29.4574 23.7487C29.5046 23.3372 29.8359 23 30.2501 23C30.6643 23 31.0037 23.3369 30.9654 23.7493C30.6106 27.5695 27.5696 30.6105 23.7493 30.9654Z" fill="#84828A"/>
</svg>
